<?xml version="1.0" encoding="UTF-8"?>
<svg id="Layer_1" xmlns="http://www.w3.org/2000/svg" width="24" height="24" version="1.1"
  viewBox="0 0 24 24" fill="#fc074f">
  <!-- Generator: Adobe Illustrator 29.2.1, SVG Export Plug-In . SVG Version: 2.1.0 Build 116)  -->
  <rect x=".2" y="16.8" width="4.8" height="4.8" rx=".7" ry=".7" />
  <rect x="19.1" y="2.4" width="4.8" height="4.8" rx=".7" ry=".7" />
  <path
    d="M22.2,14.4h-2.8c-.7,0-1.3-.6-1.3-1.3v-2.8c0-.4-.3-.7-.7-.7H7.4c-.7,0-1.3-.6-1.3-1.3v-2.2c0-.7.6-1.3,1.3-1.3h10.4c.4,0,.7-.3.7-.7V.7c0-.4-.3-.7-.7-.7H6.8c-.4,0-.7.3-.7.7v2.8c0,.7-.6,1.3-1.3,1.3h-2.8c-.4,0-.7.3-.7.7v3.4c0,.4.3.7.7.7h2.8c.7,0,1.3.6,1.3,1.3v2.8c0,.4.3.7.7.7h10c.7,0,1.3.6,1.3,1.3v2.2c0,.7-.6,1.3-1.3,1.3H6.8c-.4,0-.7.3-.7.7v3.5c0,.4.3.7.7.7h10.6c.4,0,.7-.3.7-.7v-2.8c0-.7.6-1.3,1.3-1.3h2.8c.4,0,.7-.3.7-.7v-3.4c0-.4-.3-.7-.7-.7Z" />
</svg>